<svg version="1.1"
	baseProfile="full"
	width="1300" height="1300"
	xmlns="http://www.w3.org/2000/svg">
	
	<circle cx="200" cy="200" r="48.867" fill="#00FF00"/>
	<text x="200" y="145.133" font-size="30" text-anchor="middle" fill="black">POLS:3759</text>
	<circle cx="200" cy="400" r="22.503" fill="#00FF00"/>
	<text x="200" y="371.497" font-size="30" text-anchor="middle" fill="black">MUSP:1731</text>
	<circle cx="200" cy="600" r="7.631" fill="#00FF00"/>
	<text x="200" y="586.369" font-size="30" text-anchor="middle" fill="black">GER:587</text>
	<circle cx="200" cy="800" r="30.394" fill="#00FF00"/>
	<text x="200" y="763.606" font-size="30" text-anchor="middle" fill="black">HISP:2338</text>
	<circle cx="200" cy="1000" r="20.345" fill="#00FF00"/>
	<text x="200" y="973.655" font-size="30" text-anchor="middle" fill="black">COMP:1565</text>
	<circle cx="200" cy="1200" r="35.035" fill="#00FF00"/>
	<text x="200" y="1158.965" font-size="30" text-anchor="middle" fill="black">FSEM:2695</text>
	<circle cx="400" cy="200" r="0.026" fill="#00FF00"/>
	<text x="400" y="193.974" font-size="30" text-anchor="middle" fill="black">ENV:2</text>
	<circle cx="400" cy="400" r="12.038" fill="#00FF00"/>
	<text x="400" y="381.962" font-size="30" text-anchor="middle" fill="black">ITAS:926</text>
	<circle cx="400" cy="600" r="26.962" fill="#00FF00"/>
	<text x="400" y="567.038" font-size="30" text-anchor="middle" fill="black">ARTS:2074</text>
	<circle cx="400" cy="800" r="21.359" fill="#00FF00"/>
	<text x="400" y="772.641" font-size="30" text-anchor="middle" fill="black">ARTH:1643</text>
	<circle cx="400" cy="1000" r="33.748" fill="#00FF00"/>
	<text x="400" y="960.252" font-size="30" text-anchor="middle" fill="black">SOC:2596</text>
	<circle cx="400" cy="1200" r="0.026" fill="#00FF00"/>
	<text x="400" y="1193.974" font-size="30" text-anchor="middle" fill="black">FNMS:2</text>
	<circle cx="600" cy="200" r="32.279" fill="#00FF00"/>
	<text x="600" y="161.721" font-size="30" text-anchor="middle" fill="black">MUSC:2483</text>
	<circle cx="600" cy="400" r="3.965" fill="#00FF00"/>
	<text x="600" y="390.035" font-size="30" text-anchor="middle" fill="black">CHIN:305</text>
	<circle cx="600" cy="600" r="28.496" fill="#00FF00"/>
	<text x="600" y="565.504" font-size="30" text-anchor="middle" fill="black">EDUC:2192</text>
	<circle cx="600" cy="800" r="5.59" fill="#00FF00"/>
	<text x="600" y="788.41" font-size="30" text-anchor="middle" fill="black">CLAS:430</text>
	<circle cx="600" cy="1000" r="2.47" fill="#00FF00"/>
	<text x="600" y="991.53" font-size="30" text-anchor="middle" fill="black">ARBC:190</text>
	<circle cx="600" cy="1200" r="2.756" fill="#00FF00"/>
	<text x="600" y="1191.244" font-size="30" text-anchor="middle" fill="black">INT:212</text>
	<circle cx="800" cy="200" r="6.331" fill="#00FF00"/>
	<text x="800" y="187.669" font-size="30" text-anchor="middle" fill="black">RUSS:487</text>
	<circle cx="800" cy="400" r="26.117" fill="#00FF00"/>
	<text x="800" y="367.883" font-size="30" text-anchor="middle" fill="black">REL:2009</text>
	<circle cx="800" cy="600" r="12.519" fill="#00FF00"/>
	<text x="800" y="581.481" font-size="30" text-anchor="middle" fill="black">AST:963</text>
	<circle cx="800" cy="800" r="75.413" fill="#00FF00"/>
	<text x="800" y="718.587" font-size="30" text-anchor="middle" fill="black">BIO:5801</text>
	<circle cx="800" cy="1000" r="37.453" fill="#00FF00"/>
	<text x="800" y="956.547" font-size="30" text-anchor="middle" fill="black">ANTH:2881</text>
	<circle cx="800" cy="1200" r="2.99" fill="#00FF00"/>
	<text x="800" y="1191.01" font-size="30" text-anchor="middle" fill="black">JAPN:230</text>
	<circle cx="1000" cy="200" r="50.375" fill="#00FF00"/>
	<text x="1000" y="143.625" font-size="30" text-anchor="middle" fill="black">ECON:3875</text>
	<circle cx="1000" cy="400" r="53.56" fill="#00FF00"/>
	<text x="1000" y="340.44" font-size="30" text-anchor="middle" fill="black">CHEM:4120</text>
	<circle cx="1000" cy="600" r="28.002" fill="#00FF00"/>
	<text x="1000" y="565.998" font-size="30" text-anchor="middle" fill="black">PHIL:2154</text>
	<circle cx="1000" cy="800" r="23.959" fill="#00FF00"/>
	<text x="1000" y="770.041" font-size="30" text-anchor="middle" fill="black">PHYS:1843</text>
	<circle cx="1000" cy="1000" r="0.611" fill="#00FF00"/>
	<text x="1000" y="993.389" font-size="30" text-anchor="middle" fill="black">WGS:47</text>
	<circle cx="1000" cy="1200" r="7.54" fill="#00FF00"/>
	<text x="1000" y="1186.46" font-size="30" text-anchor="middle" fill="black">WMST:580</text>
	<circle cx="1200" cy="200" r="18.421" fill="#00FF00"/>
	<text x="1200" y="175.579" font-size="30" text-anchor="middle" fill="black">THEA:1417</text>
	<circle cx="1200" cy="400" r="1.118" fill="#00FF00"/>
	<text x="1200" y="392.882" font-size="30" text-anchor="middle" fill="black">NEUR:86</text>
	<circle cx="1200" cy="600" r="49.842" fill="#00FF00"/>
	<text x="1200" y="544.158" font-size="30" text-anchor="middle" fill="black">HIST:3834</text>
	<circle cx="1200" cy="800" r="92.989" fill="#00FF00"/>
	<text x="1200" y="701.011" font-size="30" text-anchor="middle" fill="black">ENG:7153</text>
	<circle cx="1200" cy="1000" r="5.85" fill="#00FF00"/>
	<text x="1200" y="988.15" font-size="30" text-anchor="middle" fill="black">MGMT:450</text>
	<circle cx="1200" cy="1200" r="88.92" fill="#00FF00"/>
	<text x="1200" y="1105.08" font-size="30" text-anchor="middle" fill="black">PSY:6840</text>
</svg>